<svg xmlns="http://www.w3.org/2000/svg" viewBox="0 0 1000 500" fill="none">
  <rect width="1000" height="500" fill="transparent"/>
  <!-- Simplified continent outlines -->
  <path d="M120,180 Q140,120 200,100 Q280,80 320,130 Q350,160 340,200 Q320,240 280,250 Q220,260 180,240 Q130,220 120,180Z" fill="rgba(99,102,241,0.08)" stroke="rgba(99,102,241,0.25)" stroke-width="1.5"/>
  <path d="M380,90 Q420,70 480,80 Q540,90 560,130 Q580,170 560,210 Q520,250 480,260 Q440,270 400,250 Q360,220 380,90Z" fill="rgba(99,102,241,0.08)" stroke="rgba(99,102,241,0.25)" stroke-width="1.5"/>
  <path d="M580,100 Q640,80 720,90 Q780,100 820,140 Q860,180 840,230 Q800,280 740,290 Q680,300 620,270 Q560,240 580,100Z" fill="rgba(99,102,241,0.08)" stroke="rgba(99,102,241,0.25)" stroke-width="1.5"/>
  <path d="M700,300 Q760,280 820,300 Q880,320 900,360 Q920,400 880,430 Q840,460 780,450 Q720,440 700,400 Q680,360 700,300Z" fill="rgba(99,102,241,0.08)" stroke="rgba(99,102,241,0.25)" stroke-width="1.5"/>
  <path d="M200,320 Q260,300 320,310 Q380,320 400,360 Q420,400 380,430 Q340,460 280,450 Q220,440 200,400 Q180,360 200,320Z" fill="rgba(99,102,241,0.08)" stroke="rgba(99,102,241,0.25)" stroke-width="1.5"/>
  <!-- Grid lines -->
  <g stroke="rgba(156,163,175,0.08)" stroke-width="1">
    <line x1="0" y1="125" x2="1000" y2="125"/>
    <line x1="0" y1="250" x2="1000" y2="250"/>
    <line x1="0" y1="375" x2="1000" y2="375"/>
    <line x1="250" y1="0" x2="250" y2="500"/>
    <line x1="500" y1="0" x2="500" y2="500"/>
    <line x1="750" y1="0" x2="750" y2="500"/>
  </g>
</svg>
